<svg xmlns="http://www.w3.org/2000/svg" width="210mm" height="297mm" viewBox="0 0 210 297">
<style>text { font-family: Inter, "Helvetica Neue", Arial, sans-serif; }</style>
<rect x="0" y="0" width="210" height="297" fill="#FFFFFF"/>

<!-- MASTHEAD -->
<rect x="12" y="12" width="17" height="17" fill="#1B4B82"/>
<text x="20.5" y="23.9" font-size="10.5" font-weight="700" text-anchor="middle" fill="#FFFFFF">1</text>
<rect x="29" y="12" width="169" height="17" fill="#5FA8D3"/>
<text x="34" y="19.2" font-size="6.2" font-weight="700" fill="#FFFFFF">ENGLISH GRAMMAR</text>
<text x="34" y="25.6" font-size="3.1" fill="#FFFFFF">STRUCTURE · Sentence → Clause → Phrase</text>
<text x="195" y="25.6" font-size="3.0" font-weight="700" text-anchor="end" fill="#FFFFFF">SHEET 1 OF 3 · §1–§3, §5</text>

<!-- ============ BLOCK 1 — NESTING DIAGRAM ============ -->
<rect x="12" y="33" width="186" height="70" fill="#EAF4FA"/>
<rect x="14" y="35" width="5" height="5" fill="#1E9AA8"/>
<text x="16.5" y="38.585" font-size="3.1" font-weight="700" text-anchor="middle" fill="#FFFFFF">1</text>
<text x="21" y="38.6" font-size="3.3" font-weight="700" fill="#1B4B82">THE NESTED HIERARCHY — SENTENCE › CLAUSE › PHRASE</text>
<text x="195" y="38.6" font-size="2.1" font-style="italic" text-anchor="end" fill="#8A8F94">worked example — Orwell, 1984 (§1.2)</text>

<!-- Row 1: Sentence -->
<rect x="15" y="42" width="180" height="7" fill="#FFFFFF" stroke="#8A8F94" stroke-width="0.2"/>
<rect x="16" y="42.8" width="3.6" height="3.6" fill="#1B4B82"/>
<text x="17.8" y="45.7" font-size="2.0" font-weight="700" text-anchor="middle" fill="#FFFFFF">S</text>
<text x="21.5" y="45.4" font-size="2.15" font-weight="700" fill="#1B4B82">SENTENCE — compound (1.2)</text>
<text x="105" y="48.3" font-size="2.4" text-anchor="middle" fill="#1A1A1A">It was a bright cold day in April, <tspan font-weight="700">and</tspan> the clocks were striking thirteen.</text>

<!-- connectors row1->row2 -->
<line x1="67" y1="49" x2="59" y2="55" stroke="#8A8F94" stroke-width="0.25"/>
<line x1="140" y1="49" x2="151" y2="55" stroke="#8A8F94" stroke-width="0.25"/>
<text x="105" y="53.2" font-size="2.1" font-weight="700" text-anchor="middle" fill="#1B4B82">and</text>

<!-- Row 2: two Clauses -->
<rect x="15" y="55" width="88" height="7" fill="#FFFFFF" stroke="#8A8F94" stroke-width="0.2"/>
<rect x="107" y="55" width="88" height="7" fill="#FFFFFF" stroke="#8A8F94" stroke-width="0.2"/>
<rect x="16" y="55.8" width="3.6" height="3.6" fill="#1E9AA8"/>
<text x="17.8" y="58.7" font-size="2.0" font-weight="700" text-anchor="middle" fill="#FFFFFF">C</text>
<rect x="108" y="55.8" width="3.6" height="3.6" fill="#1E9AA8"/>
<text x="109.8" y="58.7" font-size="2.0" font-weight="700" text-anchor="middle" fill="#FFFFFF">C</text>
<text x="21.5" y="58.4" font-size="1.95" font-weight="700" fill="#1E9AA8">CLAUSE — independent (2.1)</text>
<text x="113.5" y="58.4" font-size="1.95" font-weight="700" fill="#1E9AA8">CLAUSE — independent (2.1)</text>
<text x="59" y="61.3" font-size="2.15" text-anchor="middle" fill="#1A1A1A">It was a bright cold day in April</text>
<text x="151" y="61.3" font-size="2.15" text-anchor="middle" fill="#1A1A1A">the clocks were striking thirteen</text>

<!-- connector row2(left)->row3 tree -->
<line x1="59" y1="62" x2="59" y2="65" stroke="#8A8F94" stroke-width="0.25"/>
<line x1="15" y1="65" x2="178" y2="65" stroke="#8A8F94" stroke-width="0.25"/>
<line x1="25" y1="65" x2="25" y2="68" stroke="#8A8F94" stroke-width="0.25"/>
<line x1="48" y1="65" x2="48" y2="68" stroke="#8A8F94" stroke-width="0.25"/>
<line x1="94" y1="65" x2="94" y2="68" stroke="#8A8F94" stroke-width="0.25"/>
<line x1="154" y1="65" x2="154" y2="68" stroke="#8A8F94" stroke-width="0.25"/>
<text x="15" y="64.2" font-size="1.85" font-style="italic" fill="#8A8F94">▾ left clause decomposes into clause elements (2.6) — phrases fill each slot</text>

<!-- Row 3: Phrases filling clause elements -->
<rect x="15" y="68" width="20" height="10" fill="#FFFFFF" stroke="#8A8F94" stroke-width="0.2"/>
<rect x="16" y="68.8" width="3.4" height="3.4" fill="#1B4B82"/>
<text x="17.7" y="71.5" font-size="1.9" font-weight="700" text-anchor="middle" fill="#FFFFFF">S</text>
<text x="20.2" y="71.1" font-size="1.8" font-weight="700" fill="#1B4B82">NP §3.1</text>
<text x="25" y="74.5" font-size="2.4" text-anchor="middle" fill="#1A1A1A">It</text>
<text x="25" y="77.1" font-size="1.8" font-style="italic" text-anchor="middle" fill="#8A8F94">subject</text>

<rect x="38" y="68" width="20" height="10" fill="#FFFFFF" stroke="#8A8F94" stroke-width="0.2"/>
<rect x="39" y="68.8" width="3.4" height="3.4" fill="#1B4B82"/>
<text x="40.7" y="71.5" font-size="1.9" font-weight="700" text-anchor="middle" fill="#FFFFFF">V</text>
<text x="43.2" y="71.1" font-size="1.8" font-weight="700" fill="#1B4B82">VP §3.2</text>
<text x="48" y="74.5" font-size="2.4" text-anchor="middle" fill="#1A1A1A">was</text>
<text x="48" y="77.1" font-size="1.8" font-style="italic" text-anchor="middle" fill="#8A8F94">verb</text>

<rect x="61" y="68" width="66" height="10" fill="#FFFFFF" stroke="#8A8F94" stroke-width="0.2"/>
<rect x="62" y="68.8" width="3.4" height="3.4" fill="#1B4B82"/>
<text x="63.7" y="71.5" font-size="1.8" font-weight="700" text-anchor="middle" fill="#FFFFFF">sC</text>
<text x="66.5" y="71.1" font-size="1.8" font-weight="700" fill="#1B4B82">NP §3.1</text>
<text x="94" y="74.5" font-size="2.4" font-weight="700" text-anchor="middle" fill="#1A1A1A">a bright cold day</text>
<text x="94" y="77.1" font-size="1.8" font-style="italic" text-anchor="middle" fill="#8A8F94">subject complement</text>

<rect x="130" y="68" width="48" height="10" fill="#FFFFFF" stroke="#8A8F94" stroke-width="0.2"/>
<rect x="131" y="68.8" width="3.4" height="3.4" fill="#1B4B82"/>
<text x="132.7" y="71.5" font-size="1.9" font-weight="700" text-anchor="middle" fill="#FFFFFF">A</text>
<text x="135.2" y="71.1" font-size="1.8" font-weight="700" fill="#1B4B82">PP §3.3</text>
<text x="154" y="74.5" font-size="2.4" text-anchor="middle" fill="#1A1A1A">in April</text>
<text x="154" y="77.1" font-size="1.8" font-style="italic" text-anchor="middle" fill="#8A8F94">adverbial</text>

<!-- connector row3(sC)->row4 word tier (greyed) -->
<line x1="94" y1="78" x2="94" y2="81" stroke="#8A8F94" stroke-width="0.25"/>
<line x1="61" y1="81" x2="127" y2="81" stroke="#8A8F94" stroke-width="0.25"/>
<line x1="69" y1="81" x2="69" y2="84" stroke="#8A8F94" stroke-width="0.25"/>
<line x1="86" y1="81" x2="86" y2="84" stroke="#8A8F94" stroke-width="0.25"/>
<line x1="103" y1="81" x2="103" y2="84" stroke="#8A8F94" stroke-width="0.25"/>
<line x1="120" y1="81" x2="120" y2="84" stroke="#8A8F94" stroke-width="0.25"/>
<text x="61" y="80.2" font-size="1.85" font-style="italic" fill="#8A8F94">▾ the NP decomposes into word classes (§4)</text>

<!-- Row 4: word tier, thin & greyed -->
<rect x="61" y="84" width="16" height="6" fill="#FFFFFF" stroke="#D9EAF5" stroke-width="0.3"/>
<rect x="78" y="84" width="16" height="6" fill="#FFFFFF" stroke="#D9EAF5" stroke-width="0.3"/>
<rect x="95" y="84" width="16" height="6" fill="#FFFFFF" stroke="#D9EAF5" stroke-width="0.3"/>
<rect x="112" y="84" width="15" height="6" fill="#FFFFFF" stroke="#D9EAF5" stroke-width="0.3"/>
<text x="69" y="88.1" font-size="1.9" text-anchor="middle" fill="#8A8F94">a</text>
<text x="86" y="88.1" font-size="1.9" text-anchor="middle" fill="#8A8F94">bright</text>
<text x="103" y="88.1" font-size="1.9" text-anchor="middle" fill="#8A8F94">cold</text>
<text x="119.5" y="88.1" font-size="1.9" text-anchor="middle" fill="#8A8F94">day</text>
<text x="195" y="87.6" font-size="2.0" font-weight="700" font-style="italic" text-anchor="end" fill="#8A8F94">→ WORD LEVEL (§4) — SHEET 2</text>

<text x="15" y="94.0" font-size="1.85" font-style="italic" fill="#8A8F94">Orwell, "1984" (1.2). Bold = the item each level's decomposition targets. The right-hand clause decomposes the same way.</text>
<text x="15" y="96.6" font-size="1.85" font-style="italic" fill="#8A8F94">"in April" is read here as a clause-level adverbial (2.6); it may alternatively be analysed as a postmodifier inside the NP "a bright cold day in April" (3.1).</text>

<text x="15" y="100.0" font-size="2.0"><tspan fill="#8A8F94" font-style="italic">Labelled bracketing (1.2), same sentence, compact notation: </tspan><tspan fill="#1A1A1A">[S [NP It] [VP [V was] [NP a bright cold day] [PP in April]]]</tspan></text>

<!-- ============ BLOCK 2 — SENTENCE LEVEL (§1) ============ -->
<rect x="12" y="106" width="186" height="40" fill="#EAF4FA"/>
<rect x="14" y="108" width="5" height="5" fill="#1E9AA8"/>
<text x="16.5" y="111.585" font-size="3.1" font-weight="700" text-anchor="middle" fill="#FFFFFF">2</text>
<text x="21" y="111.6" font-size="3.3" font-weight="700" fill="#1B4B82">SENTENCE LEVEL</text>
<text x="195" y="111.6" font-size="2.1" font-style="italic" text-anchor="end" fill="#8A8F94">§1 — the highest level of organisation</text>

<text x="16" y="116.5" font-size="2.0" font-style="italic" fill="#8A8F94">BY CLAUSE STRUCTURE (1.1–1.6)</text>
<text x="16" y="120.0" font-size="2.1" fill="#1A1A1A"><tspan font-weight="700">Simple</tspan> — one independent clause (1.1) <tspan font-style="italic" fill="#8A8F94">○ "Call me Ishmael." (Melville)</tspan></text>
<text x="16" y="123.3" font-size="2.1" fill="#1A1A1A"><tspan font-weight="700">Compound</tspan> — 2+ independent, coordinated or punctuation-joined (1.2)</text>
<text x="16" y="126.6" font-size="2.1" fill="#1A1A1A"><tspan font-weight="700">Complex</tspan> — independent + one or more dependent clauses (1.3)</text>
<text x="16" y="129.9" font-size="2.1" fill="#1A1A1A"><tspan font-weight="700">Compound-complex</tspan> — 2+ independent + dependent (1.4)</text>
<text x="16" y="133.2" font-size="2.1" fill="#1A1A1A"><tspan font-weight="700">Punctuation-joined</tspan> — semicolon/colon/dash, no conjunction (1.5)</text>
<text x="16" y="136.5" font-size="2.1" fill="#1A1A1A"><tspan font-weight="700">Mixed</tspan> — coordination + subordination + punctuation together (1.6)</text>

<text x="106" y="116.5" font-size="2.0" font-style="italic" fill="#8A8F94">BY PURPOSE (1.7)</text>
<text x="106" y="120.0" font-size="2.1" fill="#1A1A1A"><tspan font-weight="700">Declarative</tspan> — makes a statement or opinion</text>
<text x="106" y="123.3" font-size="2.1" fill="#1A1A1A"><tspan font-weight="700">Interrogative</tspan> — asks a direct question</text>
<text x="106" y="126.6" font-size="2.1" fill="#1A1A1A"><tspan font-weight="700">Imperative</tspan> — command, request, instruction (→5.7.6)</text>
<text x="106" y="129.9" font-size="2.1" fill="#1A1A1A"><tspan font-weight="700">Exclamatory</tspan> — strong emotion, surprise, emphasis</text>
<text x="106" y="133.2" font-size="2.1" fill="#1A1A1A"><tspan font-weight="700">Tag question</tspan> — reversed-polarity tag repeats aux + pronoun</text>
<text x="106" y="136.5" font-size="2.1" fill="#1A1A1A"><tspan font-style="italic" fill="#8A8F94">○ "It's a nice day, <tspan font-weight="700">isn't it?</tspan>"</tspan></text>

<text x="16" y="139.3" font-size="1.9" font-weight="700" fill="#1B4B82">COORDINATION (1.2) vs SUBORDINATION (1.3):</text>
<rect x="18" y="140.3" width="14" height="2.6" fill="#FFFFFF" stroke="#8A8F94" stroke-width="0.15"/>
<text x="25" y="142.35" font-size="1.8" font-weight="700" text-anchor="middle" fill="#1B4B82">IC</text>
<text x="39" y="142.35" font-size="1.8" font-style="italic" text-anchor="middle" fill="#8A8F94">and / but / or</text>
<rect x="46" y="140.3" width="14" height="2.6" fill="#FFFFFF" stroke="#8A8F94" stroke-width="0.15"/>
<text x="53" y="142.35" font-size="1.8" font-weight="700" text-anchor="middle" fill="#1B4B82">IC</text>
<text x="18" y="145.5" font-size="1.8" font-style="italic" fill="#8A8F94">same level — coordination</text>

<rect x="108" y="140.3" width="16" height="2.6" fill="#FFFFFF" stroke="#8A8F94" stroke-width="0.15"/>
<text x="116" y="142.35" font-size="1.8" font-weight="700" text-anchor="middle" fill="#1B4B82">IC</text>
<line x1="111" y1="142.9" x2="121" y2="143.4" stroke="#1E9AA8" stroke-width="0.3"/>
<rect x="120" y="143.4" width="36" height="2.6" fill="#FFFFFF" stroke="#8A8F94" stroke-width="0.15"/>
<text x="138" y="145.45" font-size="1.8" font-weight="700" text-anchor="middle" fill="#1E9AA8">dependent clause</text>
<text x="160" y="145.45" font-size="1.8" font-style="italic" fill="#8A8F94">hangs below</text>

<!-- ============ BLOCK 3 — CLAUSE LEVEL (§2) ============ -->
<rect x="12" y="149" width="186" height="62" fill="#EAF4FA"/>
<rect x="14" y="151" width="5" height="5" fill="#1E9AA8"/>
<text x="16.5" y="154.585" font-size="3.1" font-weight="700" text-anchor="middle" fill="#FFFFFF">3</text>
<text x="21" y="154.6" font-size="3.3" font-weight="700" fill="#1B4B82">CLAUSE LEVEL</text>
<text x="195" y="154.6" font-size="2.1" font-style="italic" text-anchor="end" fill="#8A8F94">§2 — every clause = subject + predicate</text>

<text x="16" y="159.0" font-size="1.9" font-weight="700" fill="#1E9AA8">CORE TYPES</text>
<text x="16" y="161.5" font-size="2.05" fill="#1A1A1A"><tspan font-weight="700">Independent</tspan> — stands alone (2.1)</text>
<text x="16" y="164.35" font-size="2.05" fill="#1A1A1A"><tspan font-weight="700">Dependent</tspan> — attaches to an independent clause (2.2)</text>
<text x="16" y="167.2" font-size="2.05" fill="#1A1A1A"><tspan font-weight="700">Noun clause</tspan> — noun function: subj/obj/complement (2.3)</text>
<text x="16" y="170.05" font-size="2.05" fill="#1A1A1A"><tspan font-weight="700">Adverbial</tspan> — modifies V/Adj/Adv: time, reason, condition… (2.4)</text>
<text x="16" y="172.9" font-size="2.05" fill="#1A1A1A"><tspan font-weight="700">Relative</tspan> (adjectival) — modifies a noun (2.5)</text>

<text x="76" y="159.0" font-size="1.9" font-weight="700" fill="#1E9AA8">NON-FINITE &amp; VERBLESS</text>
<text x="76" y="161.5" font-size="2.0" fill="#1A1A1A"><tspan font-weight="700">Non-finite</tspan> — verb untensed, subject usu. unexpressed (2.7)</text>
<text x="76" y="164.35" font-size="1.95" fill="#1A1A1A">to-infin. "to leave tomorrow" · bare infin. "him sing"</text>
<text x="76" y="167.2" font-size="1.95" fill="#1A1A1A">gerund-part. "Running hard,…" · past-part. "Defeated…"</text>
<text x="76" y="170.05" font-size="1.85" font-style="italic" fill="#8A8F94">(= phrase level 3.6–3.8, viewed as clauses)</text>
<text x="76" y="172.9" font-size="2.05" fill="#1A1A1A"><tspan font-weight="700">Verbless</tspan> — subj + predicative, no verb (2.8) <tspan font-style="italic" fill="#8A8F94">≈ 3.9</tspan></text>

<text x="137" y="159.0" font-size="1.9" font-weight="700" fill="#1E9AA8">COMPARATIVE &amp; COMMENT</text>
<text x="137" y="161.5" font-size="2.05" fill="#1A1A1A"><tspan font-weight="700">Comparative</tspan> — than / as…as / the…the (2.9)</text>
<text x="137" y="164.35" font-size="1.95" font-style="italic" fill="#8A8F94">○ "…taller than his brother is."</text>
<text x="137" y="167.2" font-size="2.05" fill="#1A1A1A"><tspan font-weight="700">Comment</tspan> (parenthetical) — stance aside (2.10)</text>
<text x="137" y="170.05" font-size="1.95" font-style="italic" fill="#8A8F94">○ "He will, <tspan font-weight="700">I think</tspan>, arrive tomorrow."</text>

<line x1="16" y1="175.5" x2="194" y2="175.5" stroke="#8A8F94" stroke-width="0.2"/>

<!-- Clause elements table -->
<text x="16" y="179.1" font-size="1.9" font-weight="700" fill="#1B4B82">CLAUSE ELEMENTS (2.6)</text>
<g font-size="1.8">
<rect x="63" y="176.8" width="19" height="5.4" fill="#FFFFFF" stroke="#8A8F94" stroke-width="0.15"/>
<text x="64.5" y="179.9" font-weight="700" fill="#1B4B82">S</text><text x="68" y="179.9" fill="#1A1A1A">subject</text>
<rect x="82" y="176.8" width="17" height="5.4" fill="#FFFFFF" stroke="#8A8F94" stroke-width="0.15"/>
<text x="83.5" y="179.9" font-weight="700" fill="#1B4B82">V</text><text x="86.5" y="179.9" fill="#1A1A1A">verb</text>
<rect x="99" y="176.8" width="19" height="5.4" fill="#FFFFFF" stroke="#8A8F94" stroke-width="0.15"/>
<text x="100.5" y="179.9" font-weight="700" fill="#1B4B82">dO</text><text x="105" y="179.9" fill="#1A1A1A">dir. obj.</text>
<rect x="118" y="176.8" width="19" height="5.4" fill="#FFFFFF" stroke="#8A8F94" stroke-width="0.15"/>
<text x="119.5" y="179.9" font-weight="700" fill="#1B4B82">iO</text><text x="124" y="179.9" fill="#1A1A1A">indir. obj.</text>
<rect x="137" y="176.8" width="20" height="5.4" fill="#FFFFFF" stroke="#8A8F94" stroke-width="0.15"/>
<text x="138.5" y="179.9" font-weight="700" fill="#1B4B82">sC</text><text x="143" y="179.9" fill="#1A1A1A">subj. compl.</text>
<rect x="157" y="176.8" width="19" height="5.4" fill="#FFFFFF" stroke="#8A8F94" stroke-width="0.15"/>
<text x="158.5" y="179.9" font-weight="700" fill="#1B4B82">oC</text><text x="163" y="179.9" fill="#1A1A1A">obj. compl.</text>
<rect x="176" y="176.8" width="18" height="5.4" fill="#FFFFFF" stroke="#8A8F94" stroke-width="0.15"/>
<text x="177.5" y="179.9" font-weight="700" fill="#1B4B82">A</text><text x="181" y="179.9" fill="#1A1A1A">adverbial</text>
</g>

<!-- Dependency arc diagram -->
<text x="16" y="185.3" font-size="1.85" font-weight="700" fill="#1E9AA8">DEPENDENCY VIEW — what modifies what (contrast the constituency tree, Block 1) · McGuffey (2.6)</text>

<path d="M118,197.3 Q150,190.3 182,197.3" fill="none" stroke="#1E9AA8" stroke-width="0.3"/>
<text x="150" y="189.3" font-size="1.8" text-anchor="middle" fill="#1E9AA8">object of preposition</text>

<path d="M56,197.3 Q40.5,194.7 25,197.3" fill="none" stroke="#1E9AA8" stroke-width="0.3"/>
<text x="40.5" y="193.7" font-size="1.8" text-anchor="middle" fill="#1E9AA8">determiner</text>

<path d="M87,197.3 Q71.5,194.7 56,197.3" fill="none" stroke="#1E9AA8" stroke-width="0.3"/>
<text x="71.5" y="193.7" font-size="1.8" text-anchor="middle" fill="#1E9AA8">subject</text>

<path d="M87,197.3 Q102.5,194.7 118,197.3" fill="none" stroke="#1E9AA8" stroke-width="0.3"/>
<text x="102.5" y="193.7" font-size="1.8" text-anchor="middle" fill="#1E9AA8">adverbial</text>

<path d="M182,197.3 Q165.5,194.7 149,197.3" fill="none" stroke="#1E9AA8" stroke-width="0.3"/>
<text x="165.5" y="193.7" font-size="1.8" text-anchor="middle" fill="#1E9AA8">determiner</text>

<polygon points="24.5,196.6 25.5,196.6 25,197.6" fill="#1E9AA8"/>
<polygon points="55.5,196.6 56.5,196.6 56,197.6" fill="#1E9AA8"/>
<polygon points="117.5,196.6 118.5,196.6 118,197.6" fill="#1E9AA8"/>
<polygon points="148.5,196.6 149.5,196.6 149,197.6" fill="#1E9AA8"/>
<polygon points="181.5,196.6 182.5,196.6 182,197.6" fill="#1E9AA8"/>

<text x="25" y="199.2" font-size="2.2" text-anchor="middle" fill="#1A1A1A">The</text>
<text x="56" y="199.2" font-size="2.2" text-anchor="middle" fill="#1A1A1A">cat</text>
<text x="87" y="199.2" font-size="2.2" text-anchor="middle" fill="#1A1A1A">ran</text>
<text x="118" y="199.2" font-size="2.2" text-anchor="middle" fill="#1A1A1A">at</text>
<text x="149" y="199.2" font-size="2.2" text-anchor="middle" fill="#1A1A1A">the</text>
<text x="182" y="199.2" font-size="2.2" text-anchor="middle" fill="#1A1A1A">rat.</text>

<!-- Common patterns as slot strips -->
<text x="16" y="202.3" font-size="1.85" font-weight="700" fill="#1B4B82">COMMON PATTERNS (2.6):</text>
<g font-size="1.8">
<rect x="16" y="203.4" width="4" height="2.8" fill="#D9EAF5"/><text x="18" y="205.4" text-anchor="middle" font-weight="700" fill="#1B4B82">S</text>
<rect x="20.3" y="203.4" width="4" height="2.8" fill="#D9EAF5"/><text x="22.3" y="205.4" text-anchor="middle" font-weight="700" fill="#1B4B82">V</text>
<text x="25.8" y="205.4" font-style="italic" fill="#8A8F94">"He slept."</text>

<rect x="37" y="203.4" width="4" height="2.8" fill="#D9EAF5"/><text x="39" y="205.4" text-anchor="middle" font-weight="700" fill="#1B4B82">S</text>
<rect x="41.3" y="203.4" width="4" height="2.8" fill="#D9EAF5"/><text x="43.3" y="205.4" text-anchor="middle" font-weight="700" fill="#1B4B82">V</text>
<rect x="45.6" y="203.4" width="5" height="2.8" fill="#D9EAF5"/><text x="48.1" y="205.4" text-anchor="middle" font-weight="700" fill="#1B4B82">dO</text>
<text x="52.1" y="205.4" font-style="italic" fill="#8A8F94">"She read the book."</text>

<rect x="70" y="203.4" width="4" height="2.8" fill="#D9EAF5"/><text x="72" y="205.4" text-anchor="middle" font-weight="700" fill="#1B4B82">S</text>
<rect x="74.3" y="203.4" width="4" height="2.8" fill="#D9EAF5"/><text x="76.3" y="205.4" text-anchor="middle" font-weight="700" fill="#1B4B82">V</text>
<rect x="78.6" y="203.4" width="5" height="2.8" fill="#D9EAF5"/><text x="81.1" y="205.4" text-anchor="middle" font-weight="700" fill="#1B4B82">iO</text>
<rect x="84" y="203.4" width="5" height="2.8" fill="#D9EAF5"/><text x="86.5" y="205.4" text-anchor="middle" font-weight="700" fill="#1B4B82">dO</text>
<text x="90.4" y="205.4" font-style="italic" fill="#8A8F94">"She gave him a book."</text>

<rect x="116" y="203.4" width="4" height="2.8" fill="#D9EAF5"/><text x="118" y="205.4" text-anchor="middle" font-weight="700" fill="#1B4B82">S</text>
<rect x="120.3" y="203.4" width="4" height="2.8" fill="#D9EAF5"/><text x="122.3" y="205.4" text-anchor="middle" font-weight="700" fill="#1B4B82">V</text>
<rect x="124.6" y="203.4" width="5" height="2.8" fill="#D9EAF5"/><text x="127.1" y="205.4" text-anchor="middle" font-weight="700" fill="#1B4B82">sC</text>
<text x="131.6" y="205.4" font-style="italic" fill="#8A8F94">"She is a doctor."</text>

<rect x="153" y="203.4" width="4" height="2.8" fill="#D9EAF5"/><text x="155" y="205.4" text-anchor="middle" font-weight="700" fill="#1B4B82">S</text>
<rect x="157.3" y="203.4" width="4" height="2.8" fill="#D9EAF5"/><text x="159.3" y="205.4" text-anchor="middle" font-weight="700" fill="#1B4B82">V</text>
<rect x="161.6" y="203.4" width="5" height="2.8" fill="#D9EAF5"/><text x="164.1" y="205.4" text-anchor="middle" font-weight="700" fill="#1B4B82">dO</text>
<rect x="167" y="203.4" width="5" height="2.8" fill="#D9EAF5"/><text x="169.5" y="205.4" text-anchor="middle" font-weight="700" fill="#1B4B82">oC</text>
</g>
<text x="173" y="205.4" font-size="1.8" font-style="italic" fill="#8A8F94">"They made him king."</text>

<text x="16" y="209.5" font-size="1.85" fill="#1A1A1A"><tspan font-weight="700">Adjunct</tspan> modifies the verb, inside the clause ("sang <tspan font-weight="700">beautifully</tspan>"); <tspan font-weight="700">disjunct</tspan> modifies the whole clause, states stance — frontable/parenthesisable is the diagnostic ("<tspan font-weight="700">Frankly</tspan>, she was wrong") (2.6)</text>

<!-- ============ BLOCK 4 — PHRASE LEVEL (§3) ============ -->
<rect x="12" y="214" width="186" height="42" fill="#EAF4FA"/>
<rect x="14" y="216" width="5" height="5" fill="#1E9AA8"/>
<text x="16.5" y="219.585" font-size="3.1" font-weight="700" text-anchor="middle" fill="#FFFFFF">4</text>
<text x="21" y="219.6" font-size="3.3" font-weight="700" fill="#1B4B82">PHRASE LEVEL</text>
<text x="195" y="219.6" font-size="2.1" font-style="italic" text-anchor="end" fill="#8A8F94">§3 — the unit that fills a clause element</text>

<text x="16" y="223.5" font-size="2.0" fill="#1A1A1A">Every phrase has a <tspan font-weight="700">head</tspan> (names its type); <tspan font-weight="700">modifiers</tspan> are optional/removable ("the <tspan font-weight="700">big</tspan> dog"); <tspan font-weight="700">complements</tspan> are required ("relies <tspan font-weight="700">on her team</tspan>") (§3)</text>

<!-- two formula diagrams -->
<rect x="16" y="225.5" width="87" height="11.5" fill="#FFFFFF" stroke="#8A8F94" stroke-width="0.2"/>
<text x="18" y="227.7" font-size="1.85" font-weight="700" fill="#1B4B82">NP TEMPLATE (3.1)</text>
<g font-size="1.8">
<rect x="18" y="229.0" width="11" height="3.2" fill="#D9EAF5"/><text x="23.5" y="231.3" text-anchor="middle" fill="#1A1A1A">Det</text>
<rect x="30" y="229.0" width="22" height="3.2" fill="#D9EAF5"/><text x="41" y="231.3" text-anchor="middle" fill="#1A1A1A">Premodifier(s)</text>
<rect x="53" y="229.0" width="15" height="3.2" fill="#1B4B82"/><text x="60.5" y="231.3" text-anchor="middle" fill="#FFFFFF" font-weight="700">HEAD</text>
<rect x="69" y="229.0" width="26" height="3.2" fill="#D9EAF5"/><text x="82" y="231.3" text-anchor="middle" fill="#1A1A1A">Postmodifier(s)</text>
</g>
<text x="18" y="235.8" font-size="2.05" fill="#1A1A1A">[the] [big red] <tspan font-weight="700">car</tspan> [that I bought yesterday]</text>

<rect x="107" y="225.5" width="87" height="11.5" fill="#FFFFFF" stroke="#8A8F94" stroke-width="0.2"/>
<text x="109" y="227.7" font-size="1.85" font-weight="700" fill="#1B4B82">VP AUXILIARY CHAIN (3.2)</text>
<text x="109" y="231.5" font-size="1.8" fill="#1A1A1A">Modal <tspan fill="#8A8F94">›</tspan> Perfect (have) <tspan fill="#8A8F94">›</tspan> Progressive (be+-ing) <tspan fill="#8A8F94">›</tspan> Passive (be+-en) <tspan fill="#8A8F94">›</tspan> Main verb</text>
<text x="109" y="235.8" font-size="2.05" fill="#1A1A1A">She <tspan font-weight="700">may have been being interviewed</tspan>.</text>

<!-- phrase type list, 3 columns -->
<text x="16" y="241.5" font-size="1.9" font-weight="700" fill="#1E9AA8">FORM TYPES (3.1–3.5)</text>
<text x="16" y="244.1" font-size="1.95" fill="#1A1A1A"><tspan font-weight="700">NP</tspan> — noun-headed (3.1)</text>
<text x="16" y="246.7" font-size="1.95" fill="#1A1A1A"><tspan font-weight="700">VP</tspan> — verb-headed; aux chain above (3.2)</text>
<text x="16" y="249.3" font-size="1.95" fill="#1A1A1A"><tspan font-weight="700">PP</tspan> — prep + object; complement or adjunct (3.3)</text>
<text x="16" y="251.9" font-size="1.95" fill="#1A1A1A"><tspan font-weight="700">AdjP</tspan> — adj-headed; attributive or predicative (3.4)</text>
<text x="16" y="254.5" font-size="1.95" fill="#1A1A1A"><tspan font-weight="700">AdvP</tspan> — adverb-headed; form ≠ adverbial function (3.5)</text>

<text x="76" y="241.5" font-size="1.9" font-weight="700" fill="#1E9AA8">= NON-FINITE CLAUSES (3.6–3.8)</text>
<text x="76" y="244.1" font-size="1.95" fill="#1A1A1A"><tspan font-weight="700">Participial</tspan> — -ing/-ed, adjective use (3.6) <tspan fill="#8A8F94" font-style="italic">= 2.7</tspan></text>
<text x="76" y="246.7" font-size="1.95" fill="#1A1A1A"><tspan font-weight="700">Infinitive</tspan> — to+base; N/Adj/Adv use (3.7) <tspan fill="#8A8F94" font-style="italic">= 2.7</tspan></text>
<text x="76" y="249.3" font-size="1.95" fill="#1A1A1A"><tspan font-weight="700">Gerund</tspan> — -ing form, noun use (3.8) <tspan fill="#8A8F94" font-style="italic">= 2.7</tspan></text>
<text x="76" y="251.9" font-size="1.85" font-style="italic" fill="#8A8F94">= same material as the non-finite clauses at 2.7, seen at phrase level.</text>

<text x="137" y="241.5" font-size="1.9" font-weight="700" fill="#1E9AA8">FURTHER TYPES (3.9–3.12)</text>
<text x="137" y="244.1" font-size="1.95" fill="#1A1A1A"><tspan font-weight="700">Absolute</tspan> — noun+participle, no finite verb (3.9) <tspan fill="#8A8F94" font-style="italic">= 2.8</tspan></text>
<text x="137" y="246.7" font-size="1.95" fill="#1A1A1A"><tspan font-weight="700">Appositive</tspan> — NP renaming a noun (3.10)</text>
<text x="137" y="249.3" font-size="1.95" fill="#1A1A1A"><tspan font-weight="700">Coordinated</tspan> — same-type phrases, one slot (3.11)</text>
<text x="137" y="251.9" font-size="1.95" fill="#1A1A1A"><tspan font-weight="700">Embedded</tspan> — phrases nest recursively (3.12)</text>

<!-- ============ BLOCK 5 — GOVERNING CONVENTIONS (§5) ============ -->
<rect x="12" y="259" width="186" height="24" fill="#EAF4FA"/>
<rect x="14" y="261" width="5" height="5" fill="#1E9AA8"/>
<text x="16.5" y="264.585" font-size="3.1" font-weight="700" text-anchor="middle" fill="#FFFFFF">5</text>
<text x="21" y="264.6" font-size="3.3" font-weight="700" fill="#1B4B82">GOVERNING CONVENTIONS</text>
<text x="195" y="264.6" font-size="2.1" font-style="italic" text-anchor="end" fill="#8A8F94">§5 — supporting rules across levels</text>

<text x="16" y="269.3" font-size="1.85" font-weight="700" fill="#1B4B82">Agreement (5.1)</text>
<text x="16" y="272.1" font-size="1.8" fill="#1A1A1A">Grammatical/notional/proximity concord;</text>
<text x="16" y="274.6" font-size="1.8" fill="#1A1A1A">singular <tspan font-weight="700">they</tspan></text>
<text x="16" y="277.9" font-size="1.85" font-weight="700" fill="#1B4B82">Consistency (5.4)</text>
<text x="16" y="280.7" font-size="1.8" fill="#1A1A1A">Tense consistency; article &amp; quantifier use</text>

<text x="61" y="269.3" font-size="1.85" font-weight="700" fill="#1B4B82">Order (5.2)</text>
<text x="61" y="272.1" font-size="1.8" font-style="italic" fill="#8A8F94">Adjective &amp; adverbial order</text>
<text x="61" y="274.6" font-size="1.8" font-style="italic" fill="#8A8F94">→ Sheet 2 (5.2.1, 5.2.2)</text>
<text x="61" y="277.9" font-size="1.85" font-weight="700" fill="#1B4B82">Stylistic coordination (5.8)</text>
<text x="61" y="280.7" font-size="1.8" fill="#1A1A1A">Polysyndeton &#8212; stacked <tspan font-weight="700">and</tspan>&#8230;<tspan font-weight="700">and</tspan>&#8230;<tspan font-weight="700">and</tspan></text>

<text x="106" y="269.3" font-size="1.85" font-weight="700" fill="#1B4B82">Omission · Voice · Negation</text>
<text x="106" y="272.1" font-size="1.8" fill="#1A1A1A">Ellipsis, zero-that, dummy there/it (5.3)</text>
<text x="106" y="274.9" font-size="1.8" fill="#1A1A1A">Active/passive; modals can/may/must… (5.5)</text>
<text x="106" y="277.7" font-size="1.8" fill="#1A1A1A">Do-support negation; double neg. = non-std (5.6)</text>

<text x="152" y="269.3" font-size="1.85" font-weight="700" fill="#1B4B82">Advanced (5.7) · Info structure (5.9)</text>
<text x="152" y="272.1" font-size="1.8" fill="#1A1A1A">Subjunctive · cleft · restr./non-restr. relative</text>
<text x="152" y="274.9" font-size="1.8" fill="#1A1A1A">4 conditionals (zero/1st/2nd/3rd + mixed/inverted)</text>
<text x="152" y="277.7" font-size="1.8" fill="#1A1A1A">inversion · imperative · reported speech</text>
<text x="152" y="280.5" font-size="1.8" fill="#1A1A1A">End-focus &amp; end-weight order given→new (5.9)</text>

<!-- FOOTER -->
<line x1="12" y1="285" x2="198" y2="285" stroke="#8A8F94" stroke-width="0.2"/>
<text x="12" y="289" font-size="1.9" font-style="italic" fill="#8A8F94">Source: Grammar_contents.md (Lukeatron Grammar parser aide). Section numbers (§) refer to that catalogue.</text>
<text x="198" y="289" font-size="1.9" font-style="italic" text-anchor="end" fill="#8A8F94">Sheet 1 of 3</text>
</svg>
