<svg role="img" aria-labelledby="title desc" viewBox="0 0 100 100" xmlns="http://www.w3.org/2000/svg"><title id="title">Lion — Miyazaki-style concept sketch</title><desc id="desc">Reference sample: the same lion subject drawn in the Miyazaki-style concept sketch, for comparing styles in the !SvgImage style guide.</desc><rect width="100" height="100" fill="#f4f1e7"/><g stroke="#a9a49a" stroke-width="0.35" fill="none"><circle cx="48" cy="48" r="26"/><circle cx="48" cy="50" r="14"/><line x1="48" y1="18" x2="48" y2="82"/><line x1="18" y1="48" x2="78" y2="48"/><line x1="22" y1="58" x2="74" y2="58"/></g><g stroke="#2b2b2b" fill="none" stroke-linecap="round"><path d="M48 22 Q24 26 22 48 Q20 68 48 74 Q76 68 74 48 Q72 26 48 22" stroke-width="1.2"/><path d="M48 24 Q26 28 24 48 Q23 66 48 72" stroke-width="0.55" opacity="0.6"/><path d="M50 21 Q73 27 75 47" stroke-width="0.5" opacity="0.45"/><circle cx="48" cy="52" r="13" stroke-width="0.9"/><circle cx="43" cy="49" r="1.2" fill="#2b2b2b" stroke="none"/><circle cx="53" cy="49" r="1.2" fill="#2b2b2b" stroke="none"/><path d="M45 58 Q48 61 51 58" stroke-width="0.8"/></g><path d="M30 34 Q40 28 50 32" stroke="#c9782b" stroke-width="5" opacity="0.3" fill="none" stroke-linecap="round"/><text x="62" y="90" font-size="4.8" fill="#6b6b6b" font-family="Georgia,serif">mane mass</text></svg>
