<svg role="img" aria-labelledby="title desc" viewBox="0 0 100 100" xmlns="http://www.w3.org/2000/svg"><title id="title">Lion — Tufte style location cutaway designs</title><desc id="desc">Reference sample: the same lion subject drawn in the Tufte style location cutaway designs, for comparing styles in the !SvgImage style guide.</desc><defs><pattern id="Lh" width="4" height="4" patternUnits="userSpaceOnUse"><path d="M0 4 L4 0" stroke="#1a1a1a" stroke-width="0.45"/></pattern><pattern id="Ls" width="4" height="4" patternUnits="userSpaceOnUse"><circle cx="1.5" cy="1.5" r="0.45" fill="#1a1a1a"/></pattern></defs><rect width="100" height="100" fill="#fcfbf8"/><rect x="10" y="18" width="80" height="10" fill="none" stroke="#1a1a1a" stroke-width="0.4"/><rect x="10" y="28" width="80" height="12" fill="url(#Ls)" stroke="#1a1a1a" stroke-width="0.4"/><rect x="10" y="40" width="80" height="34" fill="url(#Lh)" stroke="#1a1a1a" stroke-width="0.4"/><path d="M26 74 Q26 52 44 50 Q62 48 68 60 Q72 74 72 74 Z" fill="#fcfbf8" stroke="#1a1a1a" stroke-width="2"/><g fill="none" stroke="#1a1a1a" stroke-width="1"><circle cx="44" cy="60" r="7"/><path d="M51 62 Q60 64 64 72"/></g><circle cx="42" cy="59" r="0.9" fill="#1a1a1a"/><circle cx="46" cy="59" r="0.9" fill="#1a1a1a"/><line x1="10" y1="74" x2="90" y2="74" stroke="#1a1a1a" stroke-width="2"/><line x1="10" y1="86" x2="42" y2="86" stroke="#1a1a1a" stroke-width="0.7"/><line x1="10" y1="83" x2="10" y2="89" stroke="#1a1a1a" stroke-width="0.7"/><line x1="42" y1="83" x2="42" y2="89" stroke="#1a1a1a" stroke-width="0.7"/><text x="46" y="88" font-size="4.6" fill="#1a1a1a" font-family="Helvetica,sans-serif">2 m  VE 1:1</text></svg>
